# xmcd CD database file
#
# Track frame offsets:
#	150
#	19407
#	40127
#	70636
#	92024
#	116752
#	147927
#	169404
#	192780
#	225456
#	254203
#
# Disc length: 3472 seconds
#
# Revision: 0
# Processed by: cddbd v1.5.2PL0 Copyright (c) Steve Scherf et al.
# Submitted via: CDex 1.70beta2
#
DISCID=9a0d8e0b
DTITLE=Bruno Böhmer Camacho - Herencias
DYEAR=1900
DGENRE=Jazz
TTITLE0=Recuerdos
TTITLE1=Agua Panela
TTITLE2=Danzón Para Ellos
TTITLE3=Herencias
TTITLE4=Mi País
TTITLE5=Estrellado
TTITLE6=Para Sol
TTITLE7=Hortensia
TTITLE8=Trough Windows II
TTITLE9=Caravan
TTITLE10=Adios
EXTD=
EXTT0=
EXTT1=
EXTT2=
EXTT3=
EXTT4=
EXTT5=
EXTT6=
EXTT7=
EXTT8=
EXTT9=
EXTT10=
PLAYORDER=
